# xmcd CD database file
#
# Track frame offsets:
#	150
#	21759
#	42876
#	62582
#	89278
#	104551
#	127002
#	145111
#	164148
#	182794
#	213209
#	231219
#	253979
#
# Disc length: 3600 seconds
#
# Revision: 0
# Processed by: cddbd v1.5.1PL0 Copyright (c) Steve Scherf et al.
# Submitted via: CDex 1.51
#
DISCID=bd0e0e0d
DTITLE=笹川美和 - 数多
DYEAR=2005
DGENRE=JPop
TTITLE0=数多
TTITLE1=あなた　あたし
TTITLE2=霧
TTITLE3=止めないで
TTITLE4=唯一のもの
TTITLE5=ごとく
TTITLE6=香水
TTITLE7=女神
TTITLE8=先
TTITLE9=亡者
TTITLE10=美しい影
TTITLE11=蜂蜜
TTITLE12=時
EXTD=YEAR: 2005
EXTT0=
EXTT1=
EXTT2=
EXTT3=
EXTT4=
EXTT5=
EXTT6=
EXTT7=
EXTT8=
EXTT9=
EXTT10=
EXTT11=
EXTT12=
PLAYORDER=
